<!-- Generator: Adobe Illustrator 21.0.0, SVG Export Plug-In  -->
<svg version="1.1"
	 xmlns="http://www.w3.org/2000/svg" xmlns:xlink="http://www.w3.org/1999/xlink" xmlns:a="http://ns.adobe.com/AdobeSVGViewerExtensions/3.0/"
	 x="0px" y="0px" width="59px" height="59px" viewBox="0 0 59 59" style="enable-background:new 0 0 59 59;" xml:space="preserve">
<style type="text/css">
	.st0{fill:#FFFFFF;}
	.st1{fill:none;stroke:#000000;stroke-width:2.8961;stroke-linejoin:round;stroke-miterlimit:10;}
	.st2{fill:#FFFFFF;stroke:#000000;stroke-width:2.9121;stroke-linejoin:round;stroke-miterlimit:10;}
</style>
<defs>
</defs>
<g>
	<rect x="8.6" y="8.6" transform="matrix(0.7071 0.7071 -0.7071 0.7071 29.4835 -12.2125)" width="41.7" height="41.7"/>
	<g>
		<path class="st0" d="M30.9,47.3c0-15.4-2.6-18-18-18c15.4,0,18-2.6,18-18c0,15.4,2.6,18,18,18C33.4,29.3,30.9,31.8,30.9,47.3z"/>
		<path class="st1" d="M30.9,47.3c0-15.4-2.6-18-18-18c15.4,0,18-2.6,18-18c0,15.4,2.6,18,18,18C33.4,29.3,30.9,31.8,30.9,47.3z"/>
	</g>
	<path class="st2" d="M19.5,14.4c0.5,2.3,0.3,5.1,2.1,6.7c2,1.8,5.4,0.9,7.9,0c2.4-0.9,5.6-2.5,7.9-1.5c2.2,1,2.3,3.1,2.7,5.4
		c0.3,1.6,0.2,3.9,0.2,5.5c0,1.4-0.4,3.9-1,5.1c-1.3,2.8-4.1,3.2-7.2,2.9c-3.9-0.4-7-2-10.5-3.8c1.6,3.1,2.2,7,3,10.1
		c0.3,1.4,0.4,2.9,2.5,4.7c0.5,0.4,9.1,2.2,12.2,2.1c1.6-0.1,8.8-5.5,10-7.1c1.2-1.7,1.6-2.7,1.3-3.6c-1.3-4.7-3.7-6.6-5-11.4
		c-0.3-1.3-0.3-7,0.4-7.6c0.9-0.6,2.5-2.4,4.2-1.6c1.7,0.8,3.2,3.4,2.8,5.2c1.5-1.4,1.9-3,2.5-4.9c0.4-1.2,0.6-2.2,0.6-3.5
		c-0.1-3-0.3-4.9-1.1-5.5c-5.6-3.9-9.9-5.2-16.4-3.7c-2.7,0.6-6.2,2.6-8.3,2.7c-2.5,0.1-10.1-1.2-13.5-4.4
		C16.9,6.2,19,11.6,19.5,14.4z"/>
	<path class="st2" d="M5.2,9.9c4.4,1.4,7.3,0.7,10,2c1.4,0.7,2.3,2.2,2.7,3.7c0.3,1.2,0.6,2.7,0,3.8c-0.9,1.6-2.5,2.3-4.3,2.4
		c-1,0-2.5-0.4-3.4-0.9c-1.5-0.7-1.9-1.6-2.6-2.9c-0.8-1.4-1.1-3.2-1.5-4.8C5.8,11.9,5.2,9.9,5.2,9.9z"/>
	<path class="st2" d="M9.8,22.2c1.5-0.1,3.8,0.2,4.9,2.3c1.2,2.4-0.3,5.8-2,6.9c-1.5,1-2.3,1.6-4.4,1.6c-1.4,0-3.5-1.8-4.2-3
		c-1.4-2.3-1.7-5.5-2.4-8.8C1.8,21.2,5.9,22.5,9.8,22.2z"/>
	<path class="st2" d="M11.9,36.8c1-0.5,3-1.3,3.8-2.1c1.4-1.3,1.6-2.9,3-4.2c0.5,1.8,1,4.2,1.2,6.8c0.3,2.8-2.2,7.9-2.4,8.9
		c-0.5,2.3-2.6,3.1-4.9,3.2c-2.2,0.1-3.6-0.3-5-2c-1.4-1.7-2.5-3.2-2.8-5.5c-0.2-1.3-0.2-3.3-0.1-3.4C4.7,38.4,7.9,38.9,11.9,36.8z"
		/>
</g>
</svg>
