<!-- Generator: Adobe Illustrator 21.0.0, SVG Export Plug-In  -->
<svg version="1.1"
	 xmlns="http://www.w3.org/2000/svg" xmlns:xlink="http://www.w3.org/1999/xlink" xmlns:a="http://ns.adobe.com/AdobeSVGViewerExtensions/3.0/"
	 x="0px" y="0px" width="150px" height="5px" viewBox="0 0 150 5" style="enable-background:new 0 0 150 5;" xml:space="preserve">
<style type="text/css">
	.st0{fill:none;stroke:#FFFFFF;stroke-miterlimit:10;}
</style>
<defs>
</defs>
<g>
	<path class="st0" d="M0,0.5c4.7,0,4.7,4,9.4,4c4.7,0,4.7-4,9.4-4c4.7,0,4.7,4,9.4,4c4.7,0,4.7-4,9.4-4c4.7,0,4.7,4,9.4,4
		c4.7,0,4.7-4,9.4-4c4.7,0,4.7,4,9.4,4c4.7,0,4.7-4,9.4-4c4.7,0,4.7,4,9.4,4c4.7,0,4.7-4,9.4-4c4.7,0,4.7,4,9.4,4c4.7,0,4.7-4,9.4-4
		c4.7,0,4.7,4,9.4,4c4.7,0,4.7-4,9.4-4c4.7,0,4.7,4,9.4,4c4.7,0,4.7-4,9.4-4"/>
</g>
</svg>
